<svg xmlns="http://www.w3.org/2000/svg" xmlns:xlink="http://www.w3.org/1999/xlink" width="40" zoomAndPan="magnify" viewBox="0 0 30 30.000001" height="40" preserveAspectRatio="xMidYMid meet" version="1.0"><defs><clipPath id="2da9846666"><path d="M 4.238281 4.066406 L 26 4.066406 L 26 25 L 4.238281 25 Z M 4.238281 4.066406 " clip-rule="nonzero"/></clipPath><clipPath id="dff3fd3972"><path d="M 26 22 L 26.011719 22 L 26.011719 25.117188 L 26 25.117188 Z M 26 22 " clip-rule="nonzero"/></clipPath></defs><g clip-path="url(#2da9846666)"><path fill="#0a66c2" d="M 22.007812 21.863281 L 18.917969 21.863281 L 18.917969 17.019531 C 18.917969 15.867188 18.898438 14.378906 17.3125 14.378906 C 15.726562 14.378906 15.457031 15.640625 15.457031 16.9375 L 15.457031 21.863281 L 12.367188 21.863281 L 12.367188 11.90625 L 15.332031 11.90625 L 15.332031 13.265625 L 15.375 13.265625 C 15.980469 12.230469 17.105469 11.613281 18.300781 11.660156 C 21.433594 11.660156 22.011719 13.71875 22.011719 16.398438 L 22.011719 21.863281 Z M 8.878906 10.546875 C 7.886719 10.546875 7.082031 9.742188 7.082031 8.753906 C 7.082031 7.761719 7.886719 6.957031 8.875 6.957031 C 9.867188 6.957031 10.671875 7.761719 10.671875 8.75 C 10.671875 9.742188 9.867188 10.546875 8.878906 10.546875 M 10.421875 21.863281 L 7.328125 21.863281 L 7.328125 11.90625 L 10.421875 11.90625 Z M 23.550781 4.085938 L 5.777344 4.085938 C 4.9375 4.078125 4.246094 4.75 4.238281 5.589844 L 4.238281 23.441406 C 4.246094 24.285156 4.933594 24.957031 5.777344 24.949219 L 23.550781 24.949219 C 24.394531 24.957031 25.085938 24.285156 25.097656 23.441406 L 25.097656 5.589844 C 25.085938 4.746094 24.394531 4.074219 23.550781 4.085938 " fill-opacity="1" fill-rule="nonzero"/></g><g clip-path="url(#dff3fd3972)"><path fill="#0a66c2" d="M 27.46875 22.25 C 26.683594 22.257812 26.054688 22.902344 26.0625 23.6875 C 26.070312 24.472656 26.710938 25.101562 27.496094 25.09375 C 28.28125 25.085938 28.914062 24.445312 28.90625 23.660156 C 28.898438 22.882812 28.273438 22.257812 27.496094 22.25 L 27.46875 22.25 M 27.46875 24.933594 C 26.78125 24.945312 26.214844 24.394531 26.203125 23.707031 C 26.191406 23.019531 26.738281 22.449219 27.429688 22.4375 C 28.117188 22.425781 28.683594 22.976562 28.695312 23.664062 L 28.695312 23.6875 C 28.710938 24.359375 28.175781 24.917969 27.5 24.933594 L 27.46875 24.933594 " fill-opacity="1" fill-rule="nonzero"/></g></svg>