<svg xmlns="http://www.w3.org/2000/svg" xmlns:xlink="http://www.w3.org/1999/xlink" width="40" zoomAndPan="magnify" viewBox="0 0 30 30.000001" height="40" preserveAspectRatio="xMidYMid meet" version="1.0"><defs><clipPath id="439e717e24"><path d="M 1.503906 0.921875 L 29 0.921875 L 29 27.773438 L 1.503906 27.773438 Z M 1.503906 0.921875 " clip-rule="nonzero"/></clipPath><clipPath id="286246610c"><path d="M 29 24 L 29.515625 24 L 29.515625 27.773438 L 29 27.773438 Z M 29 24 " clip-rule="nonzero"/></clipPath></defs><g clip-path="url(#439e717e24)"><path fill="#0a66c2" d="M 24.503906 23.625 L 20.503906 23.625 L 20.503906 17.445312 C 20.503906 15.972656 20.476562 14.078125 18.425781 14.078125 C 16.371094 14.078125 16.023438 15.683594 16.023438 17.339844 L 16.023438 23.625 L 12.023438 23.625 L 12.023438 10.921875 L 15.863281 10.921875 L 15.863281 12.65625 L 15.917969 12.65625 C 16.699219 11.335938 18.15625 10.546875 19.707031 10.605469 C 23.761719 10.605469 24.507812 13.234375 24.507812 16.65625 L 24.507812 23.625 Z M 7.507812 9.183594 C 6.226562 9.183594 5.1875 8.160156 5.1875 6.898438 C 5.1875 5.632812 6.226562 4.605469 7.507812 4.605469 C 8.789062 4.605469 9.828125 5.632812 9.828125 6.894531 C 9.828125 8.160156 8.792969 9.183594 7.507812 9.183594 M 9.511719 23.625 L 5.507812 23.625 L 5.507812 10.921875 L 9.511719 10.921875 Z M 26.5 0.941406 L 3.496094 0.941406 C 2.410156 0.933594 1.515625 1.789062 1.503906 2.863281 L 1.503906 25.640625 C 1.515625 26.714844 2.40625 27.574219 3.496094 27.5625 L 26.5 27.5625 C 27.589844 27.574219 28.484375 26.714844 28.5 25.640625 L 28.5 2.859375 C 28.484375 1.785156 27.589844 0.929688 26.5 0.941406 " fill-opacity="1" fill-rule="nonzero"/></g><g clip-path="url(#286246610c)"><path fill="#0a66c2" d="M 31.570312 24.121094 C 30.554688 24.128906 29.738281 24.949219 29.746094 25.953125 C 29.757812 26.953125 30.589844 27.757812 31.605469 27.75 C 32.621094 27.738281 33.4375 26.917969 33.429688 25.917969 C 33.417969 24.929688 32.609375 24.128906 31.605469 24.121094 L 31.570312 24.121094 M 31.570312 27.542969 C 30.679688 27.558594 29.945312 26.855469 29.929688 25.976562 C 29.914062 25.097656 30.625 24.375 31.515625 24.359375 C 32.40625 24.34375 33.140625 25.046875 33.15625 25.925781 L 33.15625 25.949219 C 33.175781 26.8125 32.484375 27.523438 31.613281 27.542969 L 31.570312 27.542969 " fill-opacity="1" fill-rule="nonzero"/></g></svg>