<svg xmlns="http://www.w3.org/2000/svg" xmlns:xlink="http://www.w3.org/1999/xlink" width="40" zoomAndPan="magnify" viewBox="0 0 30 30.000001" height="40" preserveAspectRatio="xMidYMid meet" version="1.0"><defs><clipPath id="af54ee844a"><path d="M 8.078125 7.796875 L 21.871094 7.796875 L 21.871094 21.589844 L 8.078125 21.589844 Z M 8.078125 7.796875 " clip-rule="nonzero"/></clipPath></defs><g clip-path="url(#af54ee844a)"><path fill="#0a66c2" d="M 19.578125 19.457031 L 17.582031 19.457031 L 17.582031 16.285156 C 17.582031 15.53125 17.566406 14.554688 16.539062 14.554688 C 15.515625 14.554688 15.339844 15.378906 15.339844 16.230469 L 15.339844 19.457031 L 13.339844 19.457031 L 13.339844 12.933594 L 15.261719 12.933594 L 15.261719 13.824219 L 15.285156 13.824219 C 15.679688 13.148438 16.40625 12.742188 17.179688 12.769531 C 19.207031 12.769531 19.582031 14.121094 19.582031 15.878906 L 19.582031 19.457031 Z M 11.082031 12.042969 C 10.441406 12.042969 9.921875 11.515625 9.921875 10.867188 C 9.921875 10.21875 10.441406 9.691406 11.082031 9.691406 C 11.722656 9.691406 12.242188 10.214844 12.242188 10.867188 C 12.242188 11.515625 11.722656 12.042969 11.082031 12.042969 M 12.082031 19.457031 L 10.082031 19.457031 L 10.082031 12.933594 L 12.082031 12.933594 Z M 20.578125 7.808594 L 9.074219 7.808594 C 8.53125 7.800781 8.085938 8.242188 8.078125 8.792969 L 8.078125 20.496094 C 8.085938 21.046875 8.53125 21.488281 9.074219 21.480469 L 20.578125 21.480469 C 21.121094 21.488281 21.570312 21.046875 21.578125 20.496094 L 21.578125 8.792969 C 21.570312 8.242188 21.121094 7.800781 20.578125 7.808594 " fill-opacity="1" fill-rule="nonzero"/></g></svg>